<svg id="Layer_1" data-name="Layer 1" xmlns="http://www.w3.org/2000/svg" viewBox="0 0 400 400"><g id="Logo_FIXED" data-name="Logo FIXED"><path d="M153.62,301.57c94.34,0,145.94-78.16,145.94-145.94,0-2.22,0-4.43-.15-6.63A104.36,104.36,0,0,0,325,122.45a102.24,102.24,0,0,1-29.46,8.07,51.46,51.46,0,0,0,22.55-28.37,103,103,0,0,1-32.57,12.45,51.34,51.34,0,0,0-87.41,46.78A145.63,145.63,0,0,1,92.4,107.79a51.33,51.33,0,0,0,15.88,68.47A50.84,50.84,0,0,1,85,169.84v.65a51.32,51.32,0,0,0,41.15,50.28,51.2,51.2,0,0,1-23.16.88,51.36,51.36,0,0,0,47.92,35.62,103,103,0,0,1-63.7,22A106,106,0,0,1,75,278.53a145.22,145.22,0,0,0,78.62,23" fill="#fff"/></g></svg>